<svg width="48" height="48" viewBox="0 0 48 48" fill="none" xmlns="http://www.w3.org/2000/svg">
<g clip-path="url(#clip0_509_6639)">
<path d="M20.1523 10.8566C20.3357 12.1478 20.5065 13.3805 20.6851 14.6122C21.1027 17.4883 21.5165 20.3654 21.9513 23.2397C21.9993 23.5603 21.8083 23.6198 21.6182 23.7264L13.3747 28.3277L10.6934 29.8291C11.3097 30.121 11.8579 30.3744 12.4013 30.6384C17.6409 33.1872 22.8845 35.7302 28.1165 38.2944C29.5699 39.0067 30.3379 40.223 30.3005 41.8387C30.264 43.4304 29.4547 44.5862 28.007 45.2678C27.5118 45.4958 26.972 45.6106 26.4269 45.6038C19.3257 45.6019 12.2237 45.6 5.12254 45.6106C4.7875 45.6106 4.70398 45.5309 4.70398 45.193C4.71358 31.0704 4.71358 16.9478 4.70398 2.82527C4.70398 2.49983 4.76734 2.39999 5.11486 2.39999C13.368 2.41055 21.6211 2.39231 29.8742 2.41439C35.5555 2.42975 39.9504 7.16927 39.5549 12.8314C39.4013 15.0278 38.5277 16.9325 37.0598 18.5731C36.8169 18.8448 36.6307 18.8842 36.2966 18.72C31.0925 16.1683 25.8816 13.632 20.6717 11.0928C20.5181 11.0179 20.3616 10.9507 20.1523 10.8557V10.8566Z" fill="#09090A"/>
<path d="M24.0557 16.1433C25.5024 16.847 26.9078 17.5296 28.3123 18.2141C30.8976 19.4736 33.4915 20.7168 36.0662 21.9974C40.0224 23.9664 42.4454 27.1277 43.0771 31.5081C43.9632 37.6483 40.1136 43.4208 34.1242 45.1209C33.5578 45.2813 32.9837 45.4089 32.3971 45.4752C32.3299 45.312 32.4538 45.2246 32.5094 45.1229C34.4189 41.6102 33.1306 37.3833 29.544 35.5949C25.655 33.6557 21.7373 31.776 17.833 29.8704C17.6918 29.8013 17.5536 29.7254 17.4096 29.6505C17.5027 29.4739 17.6678 29.4384 17.8013 29.3635C20.1715 28.0358 22.5389 26.7033 24.9187 25.3939C25.2442 25.2144 25.3162 25.0262 25.2634 24.6758C24.8534 21.9101 24.4627 19.1424 24.0672 16.3747C24.0586 16.3161 24.0605 16.2557 24.0557 16.1443V16.1433Z" fill="#ADFF00"/>
</g>
<defs>
<clipPath id="clip0_509_6639">
<rect width="38.4998" height="43.2096" fill="white" transform="translate(4.70398 2.39999)"/>
</clipPath>
</defs>
</svg>
